<svg width="152" height="35" viewBox="0 0 152 35" fill="none" xmlns="http://www.w3.org/2000/svg">
<path d="M47.5883 18.3361C47.5883 23.0846 50.1348 25.5546 54.4429 25.5546C57.4873 25.5546 59.8998 23.5824 59.8998 21.5911C59.8998 20.8252 59.1339 20.3849 58.3681 20.3849C56.8554 20.3849 56.9129 23.0271 54.4429 23.0271C51.724 23.0271 50.7284 20.8444 50.7284 18.3361C50.7284 15.3492 52.3559 13.6451 54.328 13.6451C57.2001 13.6451 56.664 16.1342 58.4829 16.1342C59.4211 16.1342 59.8998 15.5981 59.8998 14.7173C59.8998 13.377 57.9277 11.1177 54.328 11.1177C49.8859 11.1177 47.5883 14.4493 47.5883 18.3361Z" fill="black"/>
<path d="M63.8763 20.2125C63.8763 18.3936 64.623 17.0341 66.2505 17.0341C67.878 17.0341 68.6247 18.3936 68.6247 20.2125C68.6247 21.9166 67.9163 23.4101 66.2505 23.4101C64.5847 23.4101 63.8763 21.9166 63.8763 20.2125ZM61.0808 20.2125C61.0808 23.008 62.4402 25.478 66.2505 25.478C70.0608 25.478 71.4202 23.008 71.4202 20.2125C71.4202 17.2639 69.6204 14.9662 66.2505 14.9662C62.8806 14.9662 61.0808 17.2639 61.0808 20.2125Z" fill="black"/>
<path d="M74.1066 24.0802C74.1066 24.9993 74.6619 25.478 75.5044 25.478C76.3468 25.478 76.9021 24.9993 76.9021 24.0802V17.0533H77.7637C78.587 17.0533 79.0274 16.8044 79.0274 16.1342C79.0274 15.4641 78.587 15.2151 77.7637 15.2151H76.9021V14.0089C76.9021 13.6259 77.1127 13.3579 77.5148 13.3579C77.7254 13.3579 77.9169 13.4153 78.1275 13.4153C78.6253 13.4153 79.0274 12.9749 79.0274 12.458C79.0274 11.5198 78.2041 11.1177 77.1893 11.1177C75.5618 11.1177 74.1066 12.0559 74.1066 13.8174V15.2151H73.4748C72.6898 15.2151 72.3643 15.5215 72.3643 16.1342C72.3643 16.7469 72.6898 17.0533 73.4748 17.0533H74.1066V24.0802Z" fill="black"/>
<path d="M81.1933 24.0802C81.1933 24.9993 81.7486 25.478 82.591 25.478C83.4335 25.478 83.9888 24.9993 83.9888 24.0802V17.0533H84.8504C85.6737 17.0533 86.1141 16.8044 86.1141 16.1342C86.1141 15.4641 85.6737 15.2151 84.8504 15.2151H83.9888V14.0089C83.9888 13.6259 84.1994 13.3579 84.6015 13.3579C84.8121 13.3579 85.0036 13.4153 85.2142 13.4153C85.712 13.4153 86.1141 12.9749 86.1141 12.458C86.1141 11.5198 85.2908 11.1177 84.276 11.1177C82.6485 11.1177 81.1933 12.0559 81.1933 13.8174V15.2151H80.5614C79.7764 15.2151 79.4509 15.5215 79.4509 16.1342C79.4509 16.7469 79.7764 17.0533 80.5614 17.0533H81.1933V24.0802Z" fill="black"/>
<path d="M96.0919 20.7486C97.0302 20.7486 97.3174 20.4997 97.3174 19.5424C97.3174 17.2447 95.4792 14.9662 92.2625 14.9662C88.9501 14.9662 86.9779 17.149 86.9779 20.404C86.9779 22.8357 88.4523 25.478 92.3583 25.478C94.0432 25.478 96.7429 24.6929 96.7429 23.008C96.7429 22.491 96.2643 21.9166 95.5941 21.9166C94.4644 21.9166 94.4644 23.2952 92.3583 23.2952C90.7308 23.2952 89.7734 22.223 89.7734 20.7486H96.0919ZM89.7734 19.1403C90.0798 17.7809 90.9222 16.9192 92.32 16.9192C93.5645 16.9192 94.5219 17.8574 94.6751 19.1403H89.7734Z" fill="black"/>
<path d="M107.816 20.7486C108.754 20.7486 109.041 20.4997 109.041 19.5424C109.041 17.2447 107.203 14.9662 103.986 14.9662C100.674 14.9662 98.7018 17.149 98.7018 20.404C98.7018 22.8357 100.176 25.478 104.082 25.478C105.767 25.478 108.467 24.6929 108.467 23.008C108.467 22.491 107.988 21.9166 107.318 21.9166C106.188 21.9166 106.188 23.2952 104.082 23.2952C102.455 23.2952 101.497 22.223 101.497 20.7486H107.816ZM101.497 19.1403C101.804 17.7809 102.646 16.9192 104.044 16.9192C105.288 16.9192 106.246 17.8574 106.399 19.1403H101.497Z" fill="black"/>
<path d="M116.604 18.3361C116.604 23.0846 119.15 25.5546 123.458 25.5546C126.503 25.5546 128.915 23.5824 128.915 21.5911C128.915 20.8252 128.149 20.3849 127.383 20.3849C125.871 20.3849 125.928 23.0271 123.458 23.0271C120.739 23.0271 119.744 20.8444 119.744 18.3361C119.744 15.3492 121.371 13.6451 123.343 13.6451C126.215 13.6451 125.679 16.1342 127.498 16.1342C128.437 16.1342 128.915 15.5981 128.915 14.7173C128.915 13.377 126.943 11.1177 123.343 11.1177C118.901 11.1177 116.604 14.4493 116.604 18.3361Z" fill="black"/>
<path d="M139.804 17.8383C139.804 15.8279 137.947 14.9662 135.266 14.9662C132.394 14.9662 130.824 16.3831 130.824 17.4936C130.824 18.0681 131.302 18.5659 132.011 18.5659C133.121 18.5659 133.179 17.0341 135.247 17.0341C136.185 17.0341 137.008 17.3788 137.008 18.1829C137.008 18.9871 136.472 19.1403 135.802 19.2169L134.098 19.4084C131.953 19.6573 130.192 20.3083 130.192 22.6251C130.192 24.3866 131.762 25.478 133.351 25.478C134.826 25.478 136.089 25.0567 137.181 23.8505C137.219 24.7121 137.621 25.478 138.827 25.478C139.497 25.478 140.091 25.0376 140.091 24.4057C140.091 23.9654 139.804 23.6973 139.804 22.5293V17.8383ZM137.008 21.6103C137.008 22.6442 136.07 23.6399 134.538 23.6399C133.581 23.6399 132.987 23.1229 132.987 22.491C132.987 21.6486 133.619 21.2848 134.787 21.1124L135.802 20.9593C136.128 20.9018 136.702 20.8061 137.008 20.5189V21.6103Z" fill="black"/>
<path d="M142.223 24.0802C142.223 24.827 142.529 25.478 143.62 25.478C144.712 25.478 145.018 24.827 145.018 24.0802V19.4658C145.018 18.0681 146.167 17.2639 147.143 17.2639C148.35 17.2639 148.905 18.0681 148.905 19.1977V24.0802C148.905 24.827 149.211 25.478 150.303 25.478C151.394 25.478 151.7 24.827 151.7 24.0802V18.6425C151.7 15.8087 149.862 14.9662 148.177 14.9662C146.588 14.9662 145.573 15.6938 144.788 16.7278H144.75V16.364C144.75 15.5215 144.367 14.9662 143.486 14.9662C142.606 14.9662 142.223 15.5215 142.223 16.364V24.0802Z" fill="black"/>
<path d="M18.2994 18.6198C20.6264 18.8373 22.2475 16.5234 22.169 14.3869C22.0482 11.0983 18.8008 8.93875 15.7012 9.24687C11.4624 9.66807 8.7471 13.8975 9.29934 17.9604C10.0056 23.156 15.2268 26.4392 20.244 25.6347C26.3881 24.6495 30.2374 18.4198 29.178 12.4407C27.9196 5.33748 20.687 0.913396 13.7566 2.23191C5.70599 3.76342 0.713341 12.0137 2.29027 19.9066C4.09073 28.9183 13.3466 34.4887 22.1885 32.6497" stroke="url(#paint0_linear_461_46)" stroke-width="3.5" stroke-linecap="round" stroke-linejoin="round"/>
<defs>
<linearGradient id="paint0_linear_461_46" x1="15.6726" y1="37.0923" x2="15.6726" y2="-5.25554" gradientUnits="userSpaceOnUse">
<stop stop-color="#04C2FF"/>
<stop offset="1" stop-color="#3ED206"/>
</linearGradient>
</defs>
</svg>
